<svg xmlns="http://www.w3.org/2000/svg" xmlns:xlink="http://www.w3.org/1999/xlink" viewBox="0 0 410.92 343.25"><defs><style>.cls-1{fill:none;}.cls-2{isolation:isolate;}.cls-3{fill:#181b1b;}.cls-4{mix-blend-mode:multiply;}.cls-5{clip-path:url(#clip-path);}.cls-6{fill:#e10614;}.cls-7{clip-path:url(#clip-path-2);}.cls-8{fill:#652381;}.cls-9{clip-path:url(#clip-path-3);}.cls-10{fill:#e51b73;}.cls-11{clip-path:url(#clip-path-4);}.cls-12{fill:#f7b033;}.cls-13{fill:#a0195b;}.cls-14{clip-path:url(#clip-path-5);}.cls-15{clip-path:url(#clip-path-6);}.cls-16{fill:#3aa836;}.cls-17{clip-path:url(#clip-path-7);}.cls-18{fill:#c89b66;}.cls-19{clip-path:url(#clip-path-8);}.cls-20{fill:#ef887c;}.cls-21{clip-path:url(#clip-path-9);}.cls-22{fill:#36a8df;}.cls-23{clip-path:url(#clip-path-10);}.cls-24{fill:#ffec00;}.cls-25{clip-path:url(#clip-path-11);}.cls-26{fill:#c8b99d;}.cls-27{clip-path:url(#clip-path-12);}.cls-28{fill:#858585;}.cls-29{clip-path:url(#clip-path-13);}.cls-30{fill:#b0b0af;}.cls-31{clip-path:url(#clip-path-14);}.cls-32{fill:#1b71b6;}.cls-33{clip-path:url(#clip-path-15);}.cls-34{fill:#e74e1b;}.cls-35{clip-path:url(#clip-path-16);}.cls-36{clip-path:url(#clip-path-17);}.cls-37{clip-path:url(#clip-path-18);}.cls-38{clip-path:url(#clip-path-19);}.cls-39{clip-path:url(#clip-path-20);}.cls-40{fill:#683c11;}.cls-41{clip-path:url(#clip-path-21);}.cls-42{clip-path:url(#clip-path-22);}.cls-43{clip-path:url(#clip-path-23);}.cls-44{fill:#009f98;}.cls-45{clip-path:url(#clip-path-24);}.cls-46{clip-path:url(#clip-path-25);}.cls-47{clip-path:url(#clip-path-26);}.cls-48{clip-path:url(#clip-path-27);}.cls-49{clip-path:url(#clip-path-28);}.cls-50{clip-path:url(#clip-path-29);}.cls-51{clip-path:url(#clip-path-30);}.cls-52{clip-path:url(#clip-path-31);}.cls-53{clip-path:url(#clip-path-32);}.cls-54{clip-path:url(#clip-path-33);}.cls-55{clip-path:url(#clip-path-34);}.cls-56{clip-path:url(#clip-path-35);}.cls-57{clip-path:url(#clip-path-36);}.cls-58{clip-path:url(#clip-path-37);}.cls-59{clip-path:url(#clip-path-38);}.cls-60{clip-path:url(#clip-path-39);}.cls-61{clip-path:url(#clip-path-40);}.cls-62{clip-path:url(#clip-path-41);}.cls-63{clip-path:url(#clip-path-42);}.cls-64{clip-path:url(#clip-path-43);}.cls-65{clip-path:url(#clip-path-44);}.cls-66{clip-path:url(#clip-path-45);}.cls-67{clip-path:url(#clip-path-46);}.cls-68{clip-path:url(#clip-path-47);}.cls-69{clip-path:url(#clip-path-48);}.cls-70{clip-path:url(#clip-path-49);}.cls-71{clip-path:url(#clip-path-50);}.cls-72{clip-path:url(#clip-path-51);}.cls-73{clip-path:url(#clip-path-52);}.cls-74{clip-path:url(#clip-path-53);}.cls-75{clip-path:url(#clip-path-54);}.cls-76{clip-path:url(#clip-path-55);}.cls-77{clip-path:url(#clip-path-56);}.cls-78{clip-path:url(#clip-path-57);}.cls-79{clip-path:url(#clip-path-58);}.cls-80{clip-path:url(#clip-path-59);}</style><clipPath id="clip-path" transform="translate(0 0)"><rect class="cls-1" x="182.34" y="54" width="26.53" height="26.48"/></clipPath><clipPath id="clip-path-2" transform="translate(0 0)"><rect class="cls-1" x="139.41" y="40.47" width="26.53" height="26.48"/></clipPath><clipPath id="clip-path-3" transform="translate(0 0)"><rect class="cls-1" x="136.13" y="53.11" width="26.54" height="26.48"/></clipPath><clipPath id="clip-path-4" transform="translate(0 0)"><rect class="cls-1" x="151.48" y="21.87" width="26.54" height="26.48"/></clipPath><clipPath id="clip-path-5" transform="translate(0 0)"><rect class="cls-1" x="135.11" y="152.77" width="26.54" height="26.48"/></clipPath><clipPath id="clip-path-6" transform="translate(0 0)"><rect class="cls-1" x="176.07" y="147" width="26.53" height="26.48"/></clipPath><clipPath id="clip-path-7" transform="translate(0 0)"><rect class="cls-1" x="136.13" y="108.75" width="26.54" height="26.48"/></clipPath><clipPath id="clip-path-8" transform="translate(0 0)"><rect class="cls-1" x="176.97" y="98.19" width="26.54" height="26.48"/></clipPath><clipPath id="clip-path-9" transform="translate(0 0)"><rect class="cls-1" x="182.34" width="26.53" height="26.48"/></clipPath><clipPath id="clip-path-10" transform="translate(0 0)"><rect class="cls-1" x="136.13" y="88.82" width="26.54" height="26.48"/></clipPath><clipPath id="clip-path-11" transform="translate(0 0)"><rect class="cls-1" x="123.32" y="72.75" width="26.53" height="26.48"/></clipPath><clipPath id="clip-path-12" transform="translate(0 0)"><rect class="cls-1" x="157.15" y="64.31" width="26.53" height="26.48"/></clipPath><clipPath id="clip-path-13" transform="translate(0 0)"><rect class="cls-1" x="160.11" y="133.75" width="26.53" height="26.48"/></clipPath><clipPath id="clip-path-14" transform="translate(0 0)"><rect class="cls-1" x="160.11" y="88.89" width="26.53" height="26.48"/></clipPath><clipPath id="clip-path-15" transform="translate(0 0)"><rect class="cls-1" x="244.95" y="139.95" width="26.53" height="26.48"/></clipPath><clipPath id="clip-path-16" transform="translate(0 0)"><rect class="cls-1" x="258.22" y="104.86" width="24.1" height="24.06"/></clipPath><clipPath id="clip-path-17" transform="translate(0 0)"><rect class="cls-1" x="254.84" y="64.18" width="24.1" height="24.06"/></clipPath><clipPath id="clip-path-18" transform="translate(0 0)"><rect class="cls-1" x="243.06" y="65.78" width="24.1" height="24.06"/></clipPath><clipPath id="clip-path-19" transform="translate(0 0)"><rect class="cls-1" x="274.65" y="67.91" width="24.1" height="24.06"/></clipPath><clipPath id="clip-path-20" transform="translate(0 0)"><rect class="cls-1" x="222.11" y="116.81" width="24.1" height="24.06"/></clipPath><clipPath id="clip-path-21" transform="translate(0 0)"><rect class="cls-1" x="189.4" y="23.08" width="24.1" height="24.06"/></clipPath><clipPath id="clip-path-22" transform="translate(0 0)"><rect class="cls-1" x="201.59" y="92.83" width="24.1" height="24.06"/></clipPath><clipPath id="clip-path-23" transform="translate(0 0)"><rect class="cls-1" x="196.82" y="116.81" width="24.1" height="24.06"/></clipPath><clipPath id="clip-path-24" transform="translate(0 0)"><rect class="cls-1" x="245.26" y="38.01" width="24.1" height="24.06"/></clipPath><clipPath id="clip-path-25" transform="translate(0 0)"><rect class="cls-1" x="213" y="78.07" width="24.1" height="24.06"/></clipPath><clipPath id="clip-path-26" transform="translate(0 0)"><rect class="cls-1" x="222.11" y="61.79" width="24.1" height="24.06"/></clipPath><clipPath id="clip-path-27" transform="translate(0 0)"><rect class="cls-1" x="240.87" y="87.27" width="24.1" height="24.06"/></clipPath><clipPath id="clip-path-28" transform="translate(0 0)"><rect class="cls-1" x="213" y="151.31" width="24.1" height="24.06"/></clipPath><clipPath id="clip-path-29" transform="translate(0 0)"><rect class="cls-1" x="201.46" y="53.16" width="24.1" height="24.06"/></clipPath><clipPath id="clip-path-30" transform="translate(0 0)"><rect class="cls-1" x="233.21" y="23.08" width="24.1" height="24.06"/></clipPath><clipPath id="clip-path-31" transform="translate(0 0)"><rect class="cls-1" x="185.37" y="82.5" width="13.89" height="13.86"/></clipPath><clipPath id="clip-path-32" transform="translate(0 0)"><rect class="cls-1" x="163.44" y="91.1" width="13.89" height="13.86"/></clipPath><clipPath id="clip-path-33" transform="translate(0 0)"><rect class="cls-1" x="166.27" y="97.32" width="13.89" height="13.86"/></clipPath><clipPath id="clip-path-34" transform="translate(0 0)"><rect class="cls-1" x="162.21" y="79.56" width="13.89" height="13.86"/></clipPath><clipPath id="clip-path-35" transform="translate(0 0)"><rect class="cls-1" x="199.27" y="138.06" width="13.89" height="13.86"/></clipPath><clipPath id="clip-path-36" transform="translate(0 0)"><rect class="cls-1" x="213.49" y="122.41" width="13.89" height="13.86"/></clipPath><clipPath id="clip-path-37" transform="translate(0 0)"><rect class="cls-1" x="184.62" y="119.97" width="13.89" height="13.86"/></clipPath><clipPath id="clip-path-38" transform="translate(0 0)"><rect class="cls-1" x="195.96" y="95.06" width="13.89" height="13.86"/></clipPath><clipPath id="clip-path-39" transform="translate(0 0)"><rect class="cls-1" x="167.56" y="60.52" width="13.89" height="13.86"/></clipPath><clipPath id="clip-path-40" transform="translate(0 0)"><rect class="cls-1" x="178.04" y="111.86" width="13.89" height="13.86"/></clipPath><clipPath id="clip-path-41" transform="translate(0 0)"><rect class="cls-1" x="167.53" y="109.53" width="13.89" height="13.86"/></clipPath><clipPath id="clip-path-42" transform="translate(0 0)"><rect class="cls-1" x="178.51" y="94.98" width="13.89" height="13.86"/></clipPath><clipPath id="clip-path-43" transform="translate(0 0)"><rect class="cls-1" x="202.62" y="122.27" width="13.89" height="13.86"/></clipPath><clipPath id="clip-path-44" transform="translate(0 0)"><rect class="cls-1" x="187.83" y="104.01" width="13.89" height="13.86"/></clipPath><clipPath id="clip-path-45" transform="translate(0 0)"><rect class="cls-1" x="239.2" y="96.91" width="13.89" height="13.86"/></clipPath><clipPath id="clip-path-46" transform="translate(0 0)"><rect class="cls-1" x="232.77" y="78.81" width="12.62" height="12.59"/></clipPath><clipPath id="clip-path-47" transform="translate(0 0)"><rect class="cls-1" x="221.96" y="53.59" width="12.62" height="12.59"/></clipPath><clipPath id="clip-path-48" transform="translate(0 0)"><rect class="cls-1" x="213.71" y="67.88" width="12.62" height="12.59"/></clipPath><clipPath id="clip-path-49" transform="translate(0 0)"><rect class="cls-1" x="227.27" y="58.37" width="12.62" height="12.59"/></clipPath><clipPath id="clip-path-50" transform="translate(0 0)"><rect class="cls-1" x="226.18" y="95.23" width="12.62" height="12.59"/></clipPath><clipPath id="clip-path-51" transform="translate(0 0)"><rect class="cls-1" x="177.79" y="68.14" width="12.62" height="12.59"/></clipPath><clipPath id="clip-path-52" transform="translate(0 0)"><rect class="cls-1" x="205.75" y="92.52" width="12.62" height="12.59"/></clipPath><clipPath id="clip-path-53" transform="translate(0 0)"><rect class="cls-1" x="205.45" y="55.86" width="12.62" height="12.59"/></clipPath><clipPath id="clip-path-54" transform="translate(0 0)"><rect class="cls-1" x="205.53" y="82.77" width="12.62" height="12.59"/></clipPath><clipPath id="clip-path-55" transform="translate(0 0)"><rect class="cls-1" x="203.87" y="73.14" width="12.62" height="12.59"/></clipPath><clipPath id="clip-path-56" transform="translate(0 0)"><rect class="cls-1" x="219.91" y="77.35" width="12.62" height="12.59"/></clipPath><clipPath id="clip-path-57" transform="translate(0 0)"><rect class="cls-1" x="227.76" y="108.67" width="12.62" height="12.59"/></clipPath><clipPath id="clip-path-58" transform="translate(0 0)"><rect class="cls-1" x="192.61" y="76.42" width="12.62" height="12.59"/></clipPath><clipPath id="clip-path-59" transform="translate(0 0)"><rect class="cls-1" x="195.62" y="53.74" width="12.62" height="12.59"/></clipPath></defs><g class="cls-2"><g id="Layer_2" data-name="Layer 2"><g id="Layer_1-2" data-name="Layer 1"><path class="cls-3" d="M2.14,331.86v-.06a11.15,11.15,0,0,1,11.2-11.45A11.51,11.51,0,0,1,22,323.86l-1.71,1.83a9.61,9.61,0,0,0-7-3c-4.91,0-8.58,4-8.58,9.08v.07c0,5.12,3.7,9.14,8.58,9.14,3,0,5-1.17,7.14-3.2l1.65,1.62a11.54,11.54,0,0,1-8.86,3.89,11,11,0,0,1-11.1-11.39" transform="translate(0 0)"/><path class="cls-3" d="M25.62,331.86v-.06a11.3,11.3,0,1,1,22.59-.07v.07a11.3,11.3,0,1,1-22.59.06m20,0v-.06c0-5-3.67-9.15-8.73-9.15s-8.67,4.05-8.67,9.08v.07c0,5,3.67,9.14,8.73,9.14s8.67-4.05,8.67-9.08" transform="translate(0 0)"/><polygon class="cls-3" points="54.33 320.73 56.67 320.73 70.62 338.47 70.62 320.73 73.05 320.73 73.05 342.87 71.06 342.87 56.76 324.71 56.76 342.87 54.33 342.87 54.33 320.73"/><polygon class="cls-3" points="80.28 320.73 82.61 320.73 96.57 338.47 96.57 320.73 99 320.73 99 342.87 97.01 342.87 82.71 324.71 82.71 342.87 80.28 342.87 80.28 320.73"/><polygon class="cls-3" points="106.22 320.73 122.23 320.73 122.23 323 108.72 323 108.72 330.56 120.81 330.56 120.81 332.84 108.72 332.84 108.72 340.59 122.39 340.59 122.39 342.87 106.22 342.87 106.22 320.73"/><path class="cls-3" d="M126.4,331.86v-.06a11.15,11.15,0,0,1,11.2-11.45,11.49,11.49,0,0,1,8.63,3.51l-1.7,1.83a9.65,9.65,0,0,0-7-3c-4.9,0-8.57,4-8.57,9.08v.07c0,5.12,3.7,9.14,8.57,9.14,3,0,5-1.17,7.15-3.2l1.64,1.62a11.53,11.53,0,0,1-8.85,3.89,11,11,0,0,1-11.11-11.39" transform="translate(0 0)"/><polygon class="cls-3" points="157.66 323.04 150.23 323.04 150.23 320.73 167.62 320.73 167.62 323.04 160.19 323.04 160.19 342.87 157.66 342.87 157.66 323.04"/><rect class="cls-3" x="172.84" y="320.72" width="2.5" height="22.14"/><polygon class="cls-3" points="182.63 320.73 184.97 320.73 198.91 338.47 198.91 320.73 201.35 320.73 201.35 342.87 199.36 342.87 185.06 324.71 185.06 342.87 182.63 342.87 182.63 320.73"/><path class="cls-3" d="M207.46,331.86v-.06c0-6.08,4.46-11.45,11.1-11.45a11.63,11.63,0,0,1,8.25,2.94l-1.61,1.89a9.42,9.42,0,0,0-6.73-2.53c-4.91,0-8.42,4.15-8.42,9.08v.07c0,5.28,3.38,9.2,8.76,9.2a10.41,10.41,0,0,0,6.39-2.21v-5.51h-6.73V331h9.13v8.83a13.36,13.36,0,0,1-8.88,3.39c-7,0-11.26-5.06-11.26-11.39" transform="translate(0 0)"/><polygon class="cls-3" points="249.21 323.04 241.78 323.04 241.78 320.73 259.18 320.73 259.18 323.04 251.74 323.04 251.74 342.87 249.21 342.87 249.21 323.04"/><polygon class="cls-3" points="264.29 320.73 266.79 320.73 266.79 330.56 279.57 330.56 279.57 320.73 282.07 320.73 282.07 342.87 279.57 342.87 279.57 332.9 266.79 332.9 266.79 342.87 264.29 342.87 264.29 320.73"/><polygon class="cls-3" points="289.29 320.73 305.3 320.73 305.3 323 291.79 323 291.79 330.56 303.88 330.56 303.88 332.84 291.79 332.84 291.79 340.59 305.46 340.59 305.46 342.87 289.29 342.87 289.29 320.73"/><path class="cls-3" d="M320.61,320.73h7.69c6.95,0,11.76,4.77,11.76,11v.07c0,6.23-4.81,11.07-11.76,11.07h-7.69Zm2.5,2.3v17.53h5.19c5.6,0,9.17-3.79,9.17-8.7v-.06c0-4.91-3.57-8.77-9.17-8.77Z" transform="translate(0 0)"/><path class="cls-3" d="M345,331.86v-.06a11.3,11.3,0,1,1,22.59-.07v.07a11.22,11.22,0,0,1-11.33,11.45A11.11,11.11,0,0,1,345,331.86m20,0v-.06c0-5-3.67-9.15-8.73-9.15s-8.66,4.05-8.66,9.08v.07c0,5,3.66,9.14,8.72,9.14s8.67-4.05,8.67-9.08" transform="translate(0 0)"/><polygon class="cls-3" points="377.98 323.04 370.55 323.04 370.55 320.73 387.95 320.73 387.95 323.04 380.51 323.04 380.51 342.87 377.98 342.87 377.98 323.04"/><path class="cls-3" d="M391.44,339.64l1.55-1.83a10.54,10.54,0,0,0,7.59,3.13c3,0,4.94-1.58,4.94-3.77v-.06c0-2.06-1.11-3.22-5.76-4.21-5.09-1.1-7.43-2.75-7.43-6.38v-.07c0-3.48,3.07-6,7.27-6a11.59,11.59,0,0,1,7.79,2.72l-1.46,1.93a9.7,9.7,0,0,0-6.39-2.41c-2.88,0-4.71,1.59-4.71,3.58v.06c0,2.09,1.14,3.26,6,4.3s7.21,2.88,7.21,6.27v.06c0,3.8-3.16,6.26-7.56,6.26a12.93,12.93,0,0,1-9.05-3.54" transform="translate(0 0)"/><g class="cls-4"><g class="cls-5"><path class="cls-6" d="M195.6,80.49a13.25,13.25,0,1,1,13.27-13.24A13.26,13.26,0,0,1,195.6,80.49" transform="translate(0 0)"/></g></g><g class="cls-4"><g class="cls-7"><path class="cls-8" d="M152.68,67A13.24,13.24,0,1,1,166,53.71,13.26,13.26,0,0,1,152.68,67" transform="translate(0 0)"/></g></g><g class="cls-4"><g class="cls-9"><path class="cls-10" d="M149.39,79.59a13.24,13.24,0,1,1,13.27-13.24,13.25,13.25,0,0,1-13.27,13.24" transform="translate(0 0)"/></g></g><g class="cls-4"><g class="cls-11"><path class="cls-12" d="M164.75,48.35A13.24,13.24,0,1,1,178,35.11a13.26,13.26,0,0,1-13.27,13.24" transform="translate(0 0)"/></g></g><path class="cls-13" d="M123.32,81.15a13.24,13.24,0,1,1,13.27-13.24,13.26,13.26,0,0,1-13.27,13.24" transform="translate(0 0)"/><g class="cls-4"><g class="cls-14"><path class="cls-8" d="M148.37,179.25A13.24,13.24,0,1,1,161.64,166a13.25,13.25,0,0,1-13.27,13.24" transform="translate(0 0)"/></g></g><g class="cls-4"><g class="cls-15"><path class="cls-16" d="M189.34,173.48a13.24,13.24,0,1,1,13.26-13.24,13.26,13.26,0,0,1-13.26,13.24" transform="translate(0 0)"/></g></g><g class="cls-4"><g class="cls-17"><path class="cls-18" d="M149.39,135.23A13.24,13.24,0,1,1,162.66,122a13.25,13.25,0,0,1-13.27,13.24" transform="translate(0 0)"/></g></g><g class="cls-4"><g class="cls-19"><path class="cls-20" d="M190.24,124.67a13.24,13.24,0,1,1,13.26-13.24,13.26,13.26,0,0,1-13.26,13.24" transform="translate(0 0)"/></g></g><g class="cls-4"><g class="cls-21"><path class="cls-22" d="M195.6,26.48a13.24,13.24,0,1,1,13.27-13.24A13.26,13.26,0,0,1,195.6,26.48" transform="translate(0 0)"/></g></g><g class="cls-4"><g class="cls-23"><path class="cls-24" d="M149.39,115.3a13.24,13.24,0,1,1,13.27-13.24,13.25,13.25,0,0,1-13.27,13.24" transform="translate(0 0)"/></g></g><g class="cls-4"><g class="cls-25"><path class="cls-26" d="M136.58,99.23A13.24,13.24,0,1,1,149.85,86a13.25,13.25,0,0,1-13.27,13.24" transform="translate(0 0)"/></g></g><g class="cls-4"><g class="cls-27"><path class="cls-28" d="M170.41,90.79a13.24,13.24,0,1,1,13.27-13.24,13.26,13.26,0,0,1-13.27,13.24" transform="translate(0 0)"/></g></g><g class="cls-4"><g class="cls-29"><path class="cls-30" d="M173.37,160.24A13.25,13.25,0,1,1,186.64,147a13.25,13.25,0,0,1-13.27,13.24" transform="translate(0 0)"/></g></g><g class="cls-4"><g class="cls-31"><path class="cls-32" d="M173.37,115.38a13.25,13.25,0,1,1,13.27-13.25,13.26,13.26,0,0,1-13.27,13.25" transform="translate(0 0)"/></g></g><g class="cls-4"><g class="cls-33"><path class="cls-34" d="M258.22,166.44a13.25,13.25,0,1,1,13.26-13.25,13.26,13.26,0,0,1-13.26,13.25" transform="translate(0 0)"/></g></g><g class="cls-4"><g class="cls-35"><path class="cls-6" d="M259.12,121.45A12,12,0,1,1,274.83,128a12,12,0,0,1-15.71-6.57" transform="translate(0 0)"/></g></g><g class="cls-4"><g class="cls-36"><path class="cls-8" d="M255.74,80.77a12,12,0,1,1,15.72,6.57,12,12,0,0,1-15.72-6.57" transform="translate(0 0)"/></g></g><g class="cls-4"><g class="cls-37"><path class="cls-10" d="M244,82.37a12,12,0,1,1,15.72,6.57A12,12,0,0,1,244,82.37" transform="translate(0 0)"/></g></g><g class="cls-4"><g class="cls-38"><path class="cls-12" d="M275.55,84.5a12,12,0,1,1,15.72,6.57,12,12,0,0,1-15.72-6.57" transform="translate(0 0)"/></g></g><path class="cls-13" d="M214.54,42.41A12,12,0,1,1,230.26,49a12,12,0,0,1-15.72-6.57" transform="translate(0 0)"/><g class="cls-4"><g class="cls-39"><path class="cls-40" d="M223,133.4A12,12,0,1,1,238.73,140,12,12,0,0,1,223,133.4" transform="translate(0 0)"/></g></g><g class="cls-4"><g class="cls-41"><path class="cls-16" d="M190.3,39.67A12,12,0,1,1,206,46.24a12,12,0,0,1-15.72-6.57" transform="translate(0 0)"/></g></g><g class="cls-4"><g class="cls-42"><path class="cls-18" d="M202.49,109.41A12,12,0,1,1,218.21,116a12,12,0,0,1-15.72-6.58" transform="translate(0 0)"/></g></g><g class="cls-4"><g class="cls-43"><path class="cls-44" d="M197.72,133.4A12,12,0,1,1,213.43,140a12,12,0,0,1-15.71-6.57" transform="translate(0 0)"/></g></g><g class="cls-4"><g class="cls-45"><path class="cls-22" d="M246.17,54.6a12,12,0,1,1,15.71,6.57,12,12,0,0,1-15.71-6.57" transform="translate(0 0)"/></g></g><g class="cls-4"><g class="cls-46"><path class="cls-24" d="M213.9,94.66a12,12,0,1,1,15.72,6.57,12,12,0,0,1-15.72-6.57" transform="translate(0 0)"/></g></g><g class="cls-4"><g class="cls-47"><path class="cls-26" d="M223,78.38A12,12,0,1,1,238.73,85,12,12,0,0,1,223,78.38" transform="translate(0 0)"/></g></g><g class="cls-4"><g class="cls-48"><path class="cls-28" d="M241.77,103.86a12,12,0,1,1,15.72,6.57,12,12,0,0,1-15.72-6.57" transform="translate(0 0)"/></g></g><g class="cls-4"><g class="cls-49"><path class="cls-30" d="M213.9,167.9a12,12,0,1,1,15.72,6.57,12,12,0,0,1-15.72-6.57" transform="translate(0 0)"/></g></g><g class="cls-4"><g class="cls-50"><path class="cls-32" d="M202.36,69.75a12,12,0,1,1,15.71,6.57,12,12,0,0,1-15.71-6.57" transform="translate(0 0)"/></g></g><g class="cls-4"><g class="cls-51"><path class="cls-34" d="M234.12,39.67a12,12,0,1,1,15.71,6.57,12,12,0,0,1-15.71-6.57" transform="translate(0 0)"/></g></g><path class="cls-6" d="M196.1,99.4a9.57,9.57,0,1,1-9.57-9.56,9.56,9.56,0,0,1,9.57,9.56" transform="translate(0 0)"/><path class="cls-8" d="M186.32,130.32a9.58,9.58,0,1,1-9.58-9.56,9.57,9.57,0,0,1,9.58,9.56" transform="translate(0 0)"/><path class="cls-10" d="M195.45,132.68a9.57,9.57,0,1,1-9.57-9.55,9.56,9.56,0,0,1,9.57,9.55" transform="translate(0 0)"/><path class="cls-12" d="M172.87,121.62a9.57,9.57,0,1,1-9.57-9.56,9.57,9.57,0,0,1,9.57,9.56" transform="translate(0 0)"/><path class="cls-13" d="M196.58,151.47a9.57,9.57,0,1,1-9.57-9.56,9.57,9.57,0,0,1,9.57,9.56" transform="translate(0 0)"/><path class="cls-40" d="M267.81,132.68a9.57,9.57,0,1,1-9.57-9.55,9.56,9.56,0,0,1,9.57,9.55" transform="translate(0 0)"/><path class="cls-16" d="M266.23,105.75a9.57,9.57,0,1,1-9.57-9.55,9.56,9.56,0,0,1,9.57,9.55" transform="translate(0 0)"/><path class="cls-18" d="M235.68,132.68a9.57,9.57,0,1,1-9.57-9.55,9.56,9.56,0,0,1,9.57,9.55" transform="translate(0 0)"/><path class="cls-44" d="M228.05,103.26a9.58,9.58,0,1,1-9.58-9.56,9.57,9.57,0,0,1,9.58,9.56" transform="translate(0 0)"/><path class="cls-22" d="M157.06,99.4a9.58,9.58,0,1,1-9.57-9.56,9.57,9.57,0,0,1,9.57,9.56" transform="translate(0 0)"/><path class="cls-24" d="M221.27,132.68a9.57,9.57,0,1,1-9.57-9.55,9.57,9.57,0,0,1,9.57,9.55" transform="translate(0 0)"/><path class="cls-26" d="M209.66,141.91a9.58,9.58,0,1,1-9.58-9.56,9.57,9.57,0,0,1,9.58,9.56" transform="translate(0 0)"/><path class="cls-28" d="M203.55,117.54A9.57,9.57,0,1,1,194,108a9.57,9.57,0,0,1,9.57,9.56" transform="translate(0 0)"/><path class="cls-30" d="M253.76,115.41a9.58,9.58,0,1,1-9.57-9.56,9.57,9.57,0,0,1,9.57,9.56" transform="translate(0 0)"/><path class="cls-32" d="M221.33,115.41a9.58,9.58,0,1,1-9.58-9.56,9.57,9.57,0,0,1,9.58,9.56" transform="translate(0 0)"/><path class="cls-34" d="M258.24,57.88a9.57,9.57,0,1,1-9.57-9.55,9.57,9.57,0,0,1,9.57,9.55" transform="translate(0 0)"/><path class="cls-6" d="M225.71,53.64a8.68,8.68,0,1,1,4.75-11.32,8.7,8.7,0,0,1-4.75,11.32" transform="translate(0 0)"/><path class="cls-8" d="M196.31,56.08a8.68,8.68,0,1,1,4.75-11.33,8.71,8.71,0,0,1-4.75,11.33" transform="translate(0 0)"/><path class="cls-10" d="M197.46,64.56a8.68,8.68,0,1,1,4.75-11.32,8.7,8.7,0,0,1-4.75,11.32" transform="translate(0 0)"/><path class="cls-12" d="M199,41.8a8.68,8.68,0,1,1,4.75-11.32A8.7,8.7,0,0,1,199,41.8" transform="translate(0 0)"/><path class="cls-13" d="M168.57,85.75a8.68,8.68,0,1,1,4.75-11.32,8.7,8.7,0,0,1-4.75,11.32" transform="translate(0 0)"/><path class="cls-40" d="M234.35,79.65a8.68,8.68,0,1,1,4.75-11.32,8.7,8.7,0,0,1-4.75,11.32" transform="translate(0 0)"/><path class="cls-16" d="M166.59,103.21a8.68,8.68,0,1,1,4.75-11.32,8.69,8.69,0,0,1-4.75,11.32" transform="translate(0 0)"/><path class="cls-18" d="M217,94.43a8.68,8.68,0,1,1,4.75-11.32A8.7,8.7,0,0,1,217,94.43" transform="translate(0 0)"/><path class="cls-44" d="M234.35,97.87a8.68,8.68,0,1,1,4.75-11.32,8.7,8.7,0,0,1-4.75,11.32" transform="translate(0 0)"/><path class="cls-22" d="M177.39,63a8.68,8.68,0,1,1,4.75-11.32A8.7,8.7,0,0,1,177.39,63" transform="translate(0 0)"/><path class="cls-24" d="M207.36,96.28A8.68,8.68,0,1,1,212.11,85a8.7,8.7,0,0,1-4.75,11.32" transform="translate(0 0)"/><path class="cls-26" d="M194.58,79.65a8.68,8.68,0,1,1,4.75-11.32,8.7,8.7,0,0,1-4.75,11.32" transform="translate(0 0)"/><path class="cls-28" d="M213,66.14a8.68,8.68,0,1,1,4.75-11.32A8.7,8.7,0,0,1,213,66.14" transform="translate(0 0)"/><path class="cls-30" d="M262.89,93.4a8.68,8.68,0,1,1,4.75-11.32,8.69,8.69,0,0,1-4.75,11.32" transform="translate(0 0)"/><path class="cls-32" d="M188.34,94.53a8.68,8.68,0,1,1,4.75-11.32,8.7,8.7,0,0,1-4.75,11.32" transform="translate(0 0)"/><path class="cls-34" d="M166.59,71.65a8.68,8.68,0,1,1,4.75-11.32,8.7,8.7,0,0,1-4.75,11.32" transform="translate(0 0)"/><g class="cls-4"><g class="cls-52"><path class="cls-6" d="M196.68,94.83a6.94,6.94,0,1,1,1-9.75,7,7,0,0,1-1,9.75" transform="translate(0 0)"/></g></g><g class="cls-4"><g class="cls-53"><path class="cls-8" d="M174.75,103.42a6.94,6.94,0,1,1,1-9.75,7,7,0,0,1-1,9.75" transform="translate(0 0)"/></g></g><g class="cls-4"><g class="cls-54"><path class="cls-10" d="M177.58,109.65a6.94,6.94,0,1,1,1-9.75,7,7,0,0,1-1,9.75" transform="translate(0 0)"/></g></g><g class="cls-4"><g class="cls-55"><path class="cls-12" d="M173.53,91.89a6.94,6.94,0,1,1,1-9.75,7,7,0,0,1-1,9.75" transform="translate(0 0)"/></g></g><path class="cls-13" d="M167.48,118.85a6.94,6.94,0,1,1,1-9.75,7,7,0,0,1-1,9.75" transform="translate(0 0)"/><g class="cls-4"><g class="cls-56"><path class="cls-40" d="M210.59,150.38a6.94,6.94,0,1,1,1-9.75,7,7,0,0,1-1,9.75" transform="translate(0 0)"/></g></g><g class="cls-4"><g class="cls-57"><path class="cls-16" d="M224.8,134.73a6.94,6.94,0,1,1,1-9.75,7,7,0,0,1-1,9.75" transform="translate(0 0)"/></g></g><g class="cls-4"><g class="cls-58"><path class="cls-18" d="M195.93,132.29a6.94,6.94,0,1,1,1-9.75,7,7,0,0,1-1,9.75" transform="translate(0 0)"/></g></g><g class="cls-4"><g class="cls-59"><path class="cls-44" d="M207.27,107.38a6.94,6.94,0,1,1,1-9.75,6.94,6.94,0,0,1-1,9.75" transform="translate(0 0)"/></g></g><g class="cls-4"><g class="cls-60"><path class="cls-22" d="M178.87,72.85a6.94,6.94,0,1,1,1-9.76,7,7,0,0,1-1,9.76" transform="translate(0 0)"/></g></g><g class="cls-4"><g class="cls-61"><path class="cls-24" d="M189.36,124.18a6.94,6.94,0,1,1,1-9.75,7,7,0,0,1-1,9.75" transform="translate(0 0)"/></g></g><g class="cls-4"><g class="cls-62"><path class="cls-26" d="M178.84,121.85a6.94,6.94,0,1,1,1-9.75,6.94,6.94,0,0,1-1,9.75" transform="translate(0 0)"/></g></g><g class="cls-4"><g class="cls-63"><path class="cls-28" d="M189.83,107.3a6.94,6.94,0,1,1,1-9.75,7,7,0,0,1-1,9.75" transform="translate(0 0)"/></g></g><g class="cls-4"><g class="cls-64"><path class="cls-30" d="M213.94,134.59a6.94,6.94,0,1,1,1-9.75,7,7,0,0,1-1,9.75" transform="translate(0 0)"/></g></g><g class="cls-4"><g class="cls-65"><path class="cls-32" d="M199.14,116.33a6.94,6.94,0,1,1,1-9.75,6.94,6.94,0,0,1-1,9.75" transform="translate(0 0)"/></g></g><g class="cls-4"><g class="cls-66"><path class="cls-34" d="M250.51,109.23a6.94,6.94,0,1,1,1-9.75,6.94,6.94,0,0,1-1,9.75" transform="translate(0 0)"/></g></g><g class="cls-4"><g class="cls-67"><path class="cls-6" d="M236,90.62a6.3,6.3,0,1,1,8.56-2.49A6.29,6.29,0,0,1,236,90.62" transform="translate(0 0)"/></g></g><g class="cls-4"><g class="cls-68"><path class="cls-8" d="M225.23,65.41a6.3,6.3,0,1,1,8.57-2.5,6.29,6.29,0,0,1-8.57,2.5" transform="translate(0 0)"/></g></g><g class="cls-4"><g class="cls-69"><path class="cls-10" d="M217,79.7a6.3,6.3,0,1,1,8.56-2.49A6.29,6.29,0,0,1,217,79.7" transform="translate(0 0)"/></g></g><g class="cls-4"><g class="cls-70"><path class="cls-12" d="M230.55,70.18a6.3,6.3,0,1,1,8.56-2.49,6.28,6.28,0,0,1-8.56,2.49" transform="translate(0 0)"/></g></g><path class="cls-13" d="M191.83,73.1a6.3,6.3,0,1,1,8.57-2.49,6.29,6.29,0,0,1-8.57,2.49" transform="translate(0 0)"/><g class="cls-4"><g class="cls-71"><path class="cls-40" d="M229.45,107.05a6.3,6.3,0,1,1,8.56-2.5,6.3,6.3,0,0,1-8.56,2.5" transform="translate(0 0)"/></g></g><g class="cls-4"><g class="cls-72"><path class="cls-16" d="M181.06,80a6.3,6.3,0,1,1,8.57-2.49A6.28,6.28,0,0,1,181.06,80" transform="translate(0 0)"/></g></g><g class="cls-4"><g class="cls-73"><path class="cls-18" d="M209,104.34a6.3,6.3,0,1,1,8.56-2.5,6.29,6.29,0,0,1-8.56,2.5" transform="translate(0 0)"/></g></g><path class="cls-10" d="M220.38,117.46A6.3,6.3,0,1,1,229,115a6.29,6.29,0,0,1-8.57,2.49" transform="translate(0 0)"/><g class="cls-4"><g class="cls-74"><path class="cls-22" d="M208.73,67.67a6.3,6.3,0,1,1,8.56-2.49,6.28,6.28,0,0,1-8.56,2.49" transform="translate(0 0)"/></g></g><g class="cls-4"><g class="cls-75"><path class="cls-24" d="M208.8,94.58a6.3,6.3,0,1,1,8.57-2.49,6.29,6.29,0,0,1-8.57,2.49" transform="translate(0 0)"/></g></g><g class="cls-4"><g class="cls-76"><path class="cls-26" d="M207.15,85a6.3,6.3,0,1,1,8.56-2.49A6.29,6.29,0,0,1,207.15,85" transform="translate(0 0)"/></g></g><g class="cls-4"><g class="cls-77"><path class="cls-28" d="M223.18,89.17a6.3,6.3,0,1,1,8.56-2.5,6.3,6.3,0,0,1-8.56,2.5" transform="translate(0 0)"/></g></g><g class="cls-4"><g class="cls-78"><path class="cls-30" d="M231,120.49a6.3,6.3,0,1,1,8.56-2.5,6.3,6.3,0,0,1-8.56,2.5" transform="translate(0 0)"/></g></g><g class="cls-4"><g class="cls-79"><path class="cls-32" d="M195.89,88.24a6.3,6.3,0,1,1,8.56-2.5,6.29,6.29,0,0,1-8.56,2.5" transform="translate(0 0)"/></g></g><g class="cls-4"><g class="cls-80"><path class="cls-34" d="M198.9,65.56a6.3,6.3,0,1,1,8.56-2.5,6.29,6.29,0,0,1-8.56,2.5" transform="translate(0 0)"/></g></g><path class="cls-3" d="M50.26,235.18a23.49,23.49,0,0,0-7.76-5.59,29.25,29.25,0,0,0-12-2.45A31.82,31.82,0,0,0,14.83,231a28.11,28.11,0,0,0-10.9,10.84,34.78,34.78,0,0,0,0,32.12,27.86,27.86,0,0,0,10.9,10.9,31.83,31.83,0,0,0,15.7,3.88,28.8,28.8,0,0,0,12.32-2.63,23.86,23.86,0,0,0,7.85-5.89v7.85H62.49V227.7H50.26ZM31.41,277.84a19.1,19.1,0,0,1-9.75-2.5,18,18,0,0,1-6.81-7,23,23,0,0,1,0-20.87,17.72,17.72,0,0,1,6.8-7A19.56,19.56,0,0,1,31.41,238a19.64,19.64,0,0,1,9.71,2.45,17.18,17.18,0,0,1,6.79,7,23.38,23.38,0,0,1,0,20.88,17.56,17.56,0,0,1-6.79,7,19.26,19.26,0,0,1-9.71,2.5" transform="translate(0 0)"/><path class="cls-3" d="M94.83,229.88a19.14,19.14,0,0,0-7.07,5.78v-8H76v60.38H88.2V258c0-6.12,1.59-10.88,4.72-14.16s7.5-4.91,13-4.91a18,18,0,0,1,2.34.11l.89.11v-12h-.79a30.68,30.68,0,0,0-13.55,2.74" transform="translate(0 0)"/><rect class="cls-3" x="116.06" y="227.69" width="12.24" height="60.39"/><path class="cls-3" d="M122.18,202.51a7.8,7.8,0,0,0-5.72,2.28,7.53,7.53,0,0,0-2.29,5.5,7.35,7.35,0,0,0,2.3,5.45,7.91,7.91,0,0,0,5.71,2.22,7.82,7.82,0,0,0,5.72-2.28,7.7,7.7,0,0,0,2.28-5.61,7.18,7.18,0,0,0-2.3-5.41,8,8,0,0,0-5.7-2.15" transform="translate(0 0)"/><path class="cls-3" d="M187.46,235.18a23.49,23.49,0,0,0-7.76-5.59,29.26,29.26,0,0,0-12-2.45A31.81,31.81,0,0,0,152,231a28.11,28.11,0,0,0-10.9,10.84,34.78,34.78,0,0,0,0,32.12,27.86,27.86,0,0,0,10.9,10.9,31.79,31.79,0,0,0,15.69,3.88A28.8,28.8,0,0,0,180,286.12a23.8,23.8,0,0,0,7.86-5.89v7.85h11.79V227.7H187.46Zm-18.85,42.66a19.1,19.1,0,0,1-9.75-2.5,18,18,0,0,1-6.81-7,22.95,22.95,0,0,1,0-20.87,17.72,17.72,0,0,1,6.8-7,20.57,20.57,0,0,1,19.47,0,17.24,17.24,0,0,1,6.79,7,23.38,23.38,0,0,1,0,20.88,17.56,17.56,0,0,1-6.79,7,19.29,19.29,0,0,1-9.71,2.5" transform="translate(0 0)"/><path class="cls-3" d="M259.14,235.18a23.49,23.49,0,0,0-7.76-5.59,29.25,29.25,0,0,0-12-2.45,31.82,31.82,0,0,0-15.7,3.87,28.18,28.18,0,0,0-10.9,10.84,34.78,34.78,0,0,0,0,32.12,27.86,27.86,0,0,0,10.9,10.9,31.83,31.83,0,0,0,15.7,3.88,28.8,28.8,0,0,0,12.32-2.63,23.76,23.76,0,0,0,7.85-5.89v7.85h11.8V204.17H259.14Zm-18.85,42.66a19.12,19.12,0,0,1-9.75-2.5,18,18,0,0,1-6.81-7,23,23,0,0,1,0-20.87,17.72,17.72,0,0,1,6.8-7,20.57,20.57,0,0,1,19.47,0,17.18,17.18,0,0,1,6.79,7,23.38,23.38,0,0,1,0,20.88,17.56,17.56,0,0,1-6.79,7,19.26,19.26,0,0,1-9.71,2.5" transform="translate(0 0)"/><path class="cls-3" d="M317,227.14a31.32,31.32,0,0,0-12.81,2.51,22,22,0,0,0-7.59,5.45v-7.41h-11.8v60.39h12.24V257c0-6,1.61-10.73,4.77-13.92s7.56-4.81,13.08-4.81c4.85,0,8.62,1.37,11.18,4.08s3.89,6.86,3.89,12.32v33.41h12.24V253.45c0-8.54-2.3-15.13-6.84-19.59s-10.71-6.72-18.36-6.72" transform="translate(0 0)"/><path class="cls-3" d="M406.81,241.29a28.1,28.1,0,0,0-10.73-10.45,30.58,30.58,0,0,0-14.91-3.7,30.91,30.91,0,0,0-15.54,3.93,28.33,28.33,0,0,0-10.84,11,32,32,0,0,0-3.93,15.81,31.52,31.52,0,0,0,4.05,15.92,28.18,28.18,0,0,0,11.46,11,38.25,38.25,0,0,0,30.47,1.42A25.74,25.74,0,0,0,407,278.92l.43-.51-6.78-8.08L400,271c-4.12,4.54-9.63,6.84-16.39,6.84a22.65,22.65,0,0,1-12.28-3.2,17.41,17.41,0,0,1-6.84-8.17l46.43-9v-.66a30.71,30.71,0,0,0-4.11-15.48m-35.17-1.14a18.67,18.67,0,0,1,9.53-2.44,17.91,17.91,0,0,1,11.48,3.82,17.22,17.22,0,0,1,6,9.19l-35.85,6.76v-.15A21.81,21.81,0,0,1,365.11,247a17,17,0,0,1,6.53-6.85" transform="translate(0 0)"/></g></g></g></svg>