<svg xmlns="http://www.w3.org/2000/svg" xmlns:xlink="http://www.w3.org/1999/xlink" viewBox="0 0 622.7 179.25"><defs><style>.cls-1{fill:none;}.cls-2{isolation:isolate;}.cls-3{mix-blend-mode:multiply;}.cls-4{clip-path:url(#clip-path);}.cls-5{clip-path:url(#clip-path-2);}.cls-6{fill:#ec1c24;}.cls-7{clip-path:url(#clip-path-3);}.cls-8{clip-path:url(#clip-path-4);}.cls-9{fill:#652d90;}.cls-10{clip-path:url(#clip-path-5);}.cls-11{clip-path:url(#clip-path-6);}.cls-12{fill:#ec297b;}.cls-13{clip-path:url(#clip-path-7);}.cls-14{fill:#fcb833;}.cls-15{clip-path:url(#clip-path-9);}.cls-16{clip-path:url(#clip-path-10);}.cls-17{fill:#9e1f63;}.cls-18{clip-path:url(#clip-path-11);}.cls-19{clip-path:url(#clip-path-12);}.cls-20{clip-path:url(#clip-path-13);}.cls-21{clip-path:url(#clip-path-14);}.cls-22{fill:#37b34a;}.cls-23{clip-path:url(#clip-path-15);}.cls-24{clip-path:url(#clip-path-16);}.cls-25{fill:#c3996b;}.cls-26{clip-path:url(#clip-path-17);}.cls-27{fill:#f4897c;}.cls-28{clip-path:url(#clip-path-19);}.cls-29{clip-path:url(#clip-path-20);}.cls-30{fill:#26a9e0;}.cls-31{clip-path:url(#clip-path-21);}.cls-32{clip-path:url(#clip-path-22);}.cls-33{fill:#fff100;}.cls-34{clip-path:url(#clip-path-23);}.cls-35{fill:#c1b49a;}.cls-36{clip-path:url(#clip-path-25);}.cls-37{fill:#808184;}.cls-38{clip-path:url(#clip-path-27);}.cls-39{clip-path:url(#clip-path-28);}.cls-40{fill:#9da5aa;}.cls-41{clip-path:url(#clip-path-29);}.cls-42{clip-path:url(#clip-path-30);}.cls-43{fill:#1b75bb;}.cls-44{clip-path:url(#clip-path-31);}.cls-45{clip-path:url(#clip-path-32);}.cls-46{fill:#f05a28;}.cls-47{clip-path:url(#clip-path-33);}.cls-48{clip-path:url(#clip-path-34);}.cls-49{clip-path:url(#clip-path-35);}.cls-50{clip-path:url(#clip-path-36);}.cls-51{clip-path:url(#clip-path-37);}.cls-52{clip-path:url(#clip-path-39);}.cls-53{clip-path:url(#clip-path-41);}.cls-54{clip-path:url(#clip-path-43);}.cls-55{fill:#603813;}.cls-56{clip-path:url(#clip-path-45);}.cls-57{clip-path:url(#clip-path-46);}.cls-58{clip-path:url(#clip-path-47);}.cls-59{clip-path:url(#clip-path-48);}.cls-60{clip-path:url(#clip-path-49);}.cls-61{fill:#00a69c;}.cls-62{clip-path:url(#clip-path-51);}.cls-63{clip-path:url(#clip-path-52);}.cls-64{clip-path:url(#clip-path-53);}.cls-65{clip-path:url(#clip-path-54);}.cls-66{clip-path:url(#clip-path-55);}.cls-67{clip-path:url(#clip-path-57);}.cls-68{clip-path:url(#clip-path-59);}.cls-69{clip-path:url(#clip-path-60);}.cls-70{clip-path:url(#clip-path-61);}.cls-71{clip-path:url(#clip-path-62);}.cls-72{clip-path:url(#clip-path-63);}.cls-73{clip-path:url(#clip-path-64);}.cls-74{clip-path:url(#clip-path-65);}.cls-75{clip-path:url(#clip-path-66);}.cls-76{clip-path:url(#clip-path-67);}.cls-77{clip-path:url(#clip-path-69);}.cls-78{clip-path:url(#clip-path-70);}.cls-79{clip-path:url(#clip-path-71);}.cls-80{clip-path:url(#clip-path-72);}.cls-81{clip-path:url(#clip-path-73);}.cls-82{clip-path:url(#clip-path-74);}.cls-83{clip-path:url(#clip-path-75);}.cls-84{clip-path:url(#clip-path-77);}.cls-85{clip-path:url(#clip-path-78);}.cls-86{clip-path:url(#clip-path-79);}.cls-87{clip-path:url(#clip-path-81);}.cls-88{clip-path:url(#clip-path-82);}.cls-89{clip-path:url(#clip-path-83);}.cls-90{clip-path:url(#clip-path-84);}.cls-91{clip-path:url(#clip-path-85);}.cls-92{clip-path:url(#clip-path-86);}.cls-93{clip-path:url(#clip-path-87);}.cls-94{clip-path:url(#clip-path-88);}.cls-95{clip-path:url(#clip-path-89);}.cls-96{clip-path:url(#clip-path-91);}.cls-97{clip-path:url(#clip-path-92);}.cls-98{clip-path:url(#clip-path-93);}.cls-99{clip-path:url(#clip-path-94);}.cls-100{clip-path:url(#clip-path-95);}.cls-101{clip-path:url(#clip-path-96);}.cls-102{clip-path:url(#clip-path-97);}.cls-103{clip-path:url(#clip-path-98);}.cls-104{clip-path:url(#clip-path-99);}.cls-105{clip-path:url(#clip-path-100);}.cls-106{clip-path:url(#clip-path-101);}.cls-107{clip-path:url(#clip-path-103);}.cls-108{clip-path:url(#clip-path-104);}.cls-109{clip-path:url(#clip-path-105);}.cls-110{clip-path:url(#clip-path-107);}.cls-111{clip-path:url(#clip-path-108);}.cls-112{clip-path:url(#clip-path-109);}.cls-113{clip-path:url(#clip-path-110);}.cls-114{clip-path:url(#clip-path-111);}.cls-115{clip-path:url(#clip-path-112);}.cls-116{clip-path:url(#clip-path-113);}.cls-117{clip-path:url(#clip-path-115);}.cls-118{clip-path:url(#clip-path-116);}.cls-119{clip-path:url(#clip-path-117);}.cls-120{clip-path:url(#clip-path-118);}.cls-121{clip-path:url(#clip-path-119);}.cls-122{clip-path:url(#clip-path-120);}.cls-123{clip-path:url(#clip-path-121);}.cls-124{clip-path:url(#clip-path-122);}.cls-125{clip-path:url(#clip-path-123);}.cls-126{clip-path:url(#clip-path-125);}.cls-127{clip-path:url(#clip-path-126);}.cls-128{fill:#1b1d21;}</style><clipPath id="clip-path"><rect class="cls-1" x="72.28" y="54.01" width="26.53" height="26.48"/></clipPath><clipPath id="clip-path-2"><rect class="cls-1" x="72.28" y="54.01" width="26.53" height="26.48"/></clipPath><clipPath id="clip-path-3"><rect class="cls-1" x="29.36" y="40.47" width="26.53" height="26.48"/></clipPath><clipPath id="clip-path-4"><rect class="cls-1" x="29.36" y="40.47" width="26.53" height="26.48"/></clipPath><clipPath id="clip-path-5"><rect class="cls-1" x="26.08" y="53.11" width="26.53" height="26.49"/></clipPath><clipPath id="clip-path-6"><rect class="cls-1" x="26.08" y="53.11" width="26.53" height="26.48"/></clipPath><clipPath id="clip-path-7"><rect class="cls-1" x="41.43" y="21.87" width="26.53" height="26.48"/></clipPath><clipPath id="clip-path-9"><rect class="cls-1" y="54.67" width="26.53" height="26.48"/></clipPath><clipPath id="clip-path-10"><rect class="cls-1" y="54.67" width="26.53" height="26.48"/></clipPath><clipPath id="clip-path-11"><rect class="cls-1" x="25.05" y="152.77" width="26.53" height="26.48"/></clipPath><clipPath id="clip-path-12"><rect class="cls-1" x="25.05" y="152.77" width="26.53" height="26.48"/></clipPath><clipPath id="clip-path-13"><rect class="cls-1" x="66.02" y="147" width="26.53" height="26.48"/></clipPath><clipPath id="clip-path-14"><rect class="cls-1" x="66.02" y="147" width="26.53" height="26.48"/></clipPath><clipPath id="clip-path-15"><rect class="cls-1" x="26.08" y="108.75" width="26.53" height="26.49"/></clipPath><clipPath id="clip-path-16"><rect class="cls-1" x="26.08" y="108.75" width="26.53" height="26.48"/></clipPath><clipPath id="clip-path-17"><rect class="cls-1" x="66.92" y="98.19" width="26.53" height="26.48"/></clipPath><clipPath id="clip-path-19"><rect class="cls-1" x="72.28" width="26.53" height="26.48"/></clipPath><clipPath id="clip-path-20"><rect class="cls-1" x="72.28" width="26.53" height="26.48"/></clipPath><clipPath id="clip-path-21"><rect class="cls-1" x="26.08" y="88.81" width="26.53" height="26.49"/></clipPath><clipPath id="clip-path-22"><rect class="cls-1" x="26.08" y="88.82" width="26.53" height="26.48"/></clipPath><clipPath id="clip-path-23"><rect class="cls-1" x="13.26" y="72.75" width="26.53" height="26.48"/></clipPath><clipPath id="clip-path-25"><rect class="cls-1" x="47.09" y="64.31" width="26.53" height="26.48"/></clipPath><clipPath id="clip-path-27"><rect class="cls-1" x="50.05" y="133.76" width="26.53" height="26.48"/></clipPath><clipPath id="clip-path-28"><rect class="cls-1" x="50.05" y="133.76" width="26.53" height="26.48"/></clipPath><clipPath id="clip-path-29"><rect class="cls-1" x="50.05" y="88.89" width="26.53" height="26.48"/></clipPath><clipPath id="clip-path-30"><rect class="cls-1" x="50.05" y="88.89" width="26.53" height="26.48"/></clipPath><clipPath id="clip-path-31"><rect class="cls-1" x="134.89" y="139.95" width="26.53" height="26.48"/></clipPath><clipPath id="clip-path-32"><rect class="cls-1" x="134.89" y="139.95" width="26.53" height="26.48"/></clipPath><clipPath id="clip-path-33"><rect class="cls-1" x="148.16" y="104.85" width="24.1" height="24.06"/></clipPath><clipPath id="clip-path-34"><rect class="cls-1" x="148.16" y="104.86" width="24.1" height="24.06"/></clipPath><clipPath id="clip-path-35"><rect class="cls-1" x="144.78" y="64.18" width="24.1" height="24.06"/></clipPath><clipPath id="clip-path-36"><rect class="cls-1" x="144.78" y="64.19" width="24.1" height="24.06"/></clipPath><clipPath id="clip-path-37"><rect class="cls-1" x="133.01" y="65.78" width="24.1" height="24.06"/></clipPath><clipPath id="clip-path-39"><rect class="cls-1" x="164.6" y="67.91" width="24.1" height="24.06"/></clipPath><clipPath id="clip-path-41"><rect class="cls-1" x="103.59" y="25.82" width="24.1" height="24.06"/></clipPath><clipPath id="clip-path-43"><rect class="cls-1" x="112.06" y="116.81" width="24.1" height="24.06"/></clipPath><clipPath id="clip-path-45"><rect class="cls-1" x="79.35" y="23.08" width="24.11" height="24.06"/></clipPath><clipPath id="clip-path-46"><rect class="cls-1" x="79.35" y="23.08" width="24.1" height="24.06"/></clipPath><clipPath id="clip-path-47"><rect class="cls-1" x="91.53" y="92.83" width="24.11" height="24.06"/></clipPath><clipPath id="clip-path-48"><rect class="cls-1" x="91.53" y="92.83" width="24.1" height="24.06"/></clipPath><clipPath id="clip-path-49"><rect class="cls-1" x="86.76" y="116.81" width="24.1" height="24.06"/></clipPath><clipPath id="clip-path-51"><rect class="cls-1" x="135.21" y="38.01" width="24.11" height="24.06"/></clipPath><clipPath id="clip-path-52"><rect class="cls-1" x="135.21" y="38.02" width="24.1" height="24.06"/></clipPath><clipPath id="clip-path-53"><rect class="cls-1" x="102.94" y="78.07" width="24.11" height="24.06"/></clipPath><clipPath id="clip-path-54"><rect class="cls-1" x="102.94" y="78.07" width="24.1" height="24.06"/></clipPath><clipPath id="clip-path-55"><rect class="cls-1" x="112.06" y="61.8" width="24.1" height="24.06"/></clipPath><clipPath id="clip-path-57"><rect class="cls-1" x="130.82" y="87.27" width="24.1" height="24.06"/></clipPath><clipPath id="clip-path-59"><rect class="cls-1" x="102.94" y="151.31" width="24.11" height="24.06"/></clipPath><clipPath id="clip-path-60"><rect class="cls-1" x="102.94" y="151.31" width="24.1" height="24.06"/></clipPath><clipPath id="clip-path-61"><rect class="cls-1" x="91.4" y="53.16" width="24.11" height="24.06"/></clipPath><clipPath id="clip-path-62"><rect class="cls-1" x="91.4" y="53.16" width="24.1" height="24.06"/></clipPath><clipPath id="clip-path-63"><rect class="cls-1" x="123.16" y="23.08" width="24.11" height="24.06"/></clipPath><clipPath id="clip-path-64"><rect class="cls-1" x="123.16" y="23.08" width="24.1" height="24.06"/></clipPath><clipPath id="clip-path-65"><rect class="cls-1" x="75.31" y="82.5" width="13.89" height="13.86"/></clipPath><clipPath id="clip-path-66"><rect class="cls-1" x="75.31" y="82.5" width="13.89" height="13.86"/></clipPath><clipPath id="clip-path-67"><rect class="cls-1" x="53.38" y="91.1" width="13.89" height="13.86"/></clipPath><clipPath id="clip-path-69"><rect class="cls-1" x="56.21" y="97.32" width="13.89" height="13.87"/></clipPath><clipPath id="clip-path-70"><rect class="cls-1" x="56.21" y="97.33" width="13.89" height="13.86"/></clipPath><clipPath id="clip-path-71"><rect class="cls-1" x="52.16" y="79.57" width="13.89" height="13.86"/></clipPath><clipPath id="clip-path-72"><rect class="cls-1" x="52.16" y="79.57" width="13.89" height="13.86"/></clipPath><clipPath id="clip-path-73"><rect class="cls-1" x="46.12" y="106.53" width="13.89" height="13.86"/></clipPath><clipPath id="clip-path-74"><rect class="cls-1" x="46.12" y="106.53" width="13.89" height="13.86"/></clipPath><clipPath id="clip-path-75"><rect class="cls-1" x="89.22" y="138.06" width="13.89" height="13.86"/></clipPath><clipPath id="clip-path-77"><rect class="cls-1" x="103.44" y="122.41" width="13.89" height="13.86"/></clipPath><clipPath id="clip-path-78"><rect class="cls-1" x="103.44" y="122.41" width="13.89" height="13.86"/></clipPath><clipPath id="clip-path-79"><rect class="cls-1" x="74.56" y="119.97" width="13.89" height="13.86"/></clipPath><clipPath id="clip-path-81"><rect class="cls-1" x="85.91" y="95.06" width="13.89" height="13.87"/></clipPath><clipPath id="clip-path-82"><rect class="cls-1" x="85.91" y="95.06" width="13.89" height="13.86"/></clipPath><clipPath id="clip-path-83"><rect class="cls-1" x="57.51" y="60.52" width="13.89" height="13.86"/></clipPath><clipPath id="clip-path-84"><rect class="cls-1" x="57.51" y="60.52" width="13.89" height="13.86"/></clipPath><clipPath id="clip-path-85"><rect class="cls-1" x="67.99" y="111.86" width="13.89" height="13.86"/></clipPath><clipPath id="clip-path-86"><rect class="cls-1" x="67.99" y="111.86" width="13.89" height="13.86"/></clipPath><clipPath id="clip-path-87"><rect class="cls-1" x="57.48" y="109.53" width="13.89" height="13.87"/></clipPath><clipPath id="clip-path-88"><rect class="cls-1" x="57.48" y="109.53" width="13.89" height="13.86"/></clipPath><clipPath id="clip-path-89"><rect class="cls-1" x="68.46" y="94.97" width="13.89" height="13.86"/></clipPath><clipPath id="clip-path-91"><rect class="cls-1" x="92.57" y="122.27" width="13.89" height="13.86"/></clipPath><clipPath id="clip-path-92"><rect class="cls-1" x="92.57" y="122.27" width="13.89" height="13.86"/></clipPath><clipPath id="clip-path-93"><rect class="cls-1" x="77.78" y="104.01" width="13.89" height="13.86"/></clipPath><clipPath id="clip-path-94"><rect class="cls-1" x="77.78" y="104.01" width="13.89" height="13.86"/></clipPath><clipPath id="clip-path-95"><rect class="cls-1" x="129.15" y="96.91" width="13.89" height="13.87"/></clipPath><clipPath id="clip-path-96"><rect class="cls-1" x="129.15" y="96.91" width="13.89" height="13.86"/></clipPath><clipPath id="clip-path-97"><rect class="cls-1" x="122.71" y="78.81" width="12.62" height="12.6"/></clipPath><clipPath id="clip-path-98"><rect class="cls-1" x="122.71" y="78.81" width="12.62" height="12.6"/></clipPath><clipPath id="clip-path-99"><rect class="cls-1" x="111.91" y="53.59" width="12.61" height="12.59"/></clipPath><clipPath id="clip-path-100"><rect class="cls-1" x="111.91" y="53.59" width="12.62" height="12.6"/></clipPath><clipPath id="clip-path-101"><rect class="cls-1" x="103.66" y="67.88" width="12.62" height="12.6"/></clipPath><clipPath id="clip-path-103"><rect class="cls-1" x="117.22" y="58.37" width="12.61" height="12.6"/></clipPath><clipPath id="clip-path-104"><rect class="cls-1" x="117.22" y="58.37" width="12.62" height="12.6"/></clipPath><clipPath id="clip-path-105"><rect class="cls-1" x="78.5" y="61.29" width="12.62" height="12.6"/></clipPath><clipPath id="clip-path-107"><rect class="cls-1" x="116.12" y="95.23" width="12.61" height="12.6"/></clipPath><clipPath id="clip-path-108"><rect class="cls-1" x="116.12" y="95.23" width="12.62" height="12.6"/></clipPath><clipPath id="clip-path-109"><rect class="cls-1" x="67.74" y="68.14" width="12.61" height="12.6"/></clipPath><clipPath id="clip-path-110"><rect class="cls-1" x="67.74" y="68.14" width="12.62" height="12.6"/></clipPath><clipPath id="clip-path-111"><rect class="cls-1" x="95.7" y="92.52" width="12.61" height="12.59"/></clipPath><clipPath id="clip-path-112"><rect class="cls-1" x="95.7" y="92.52" width="12.62" height="12.6"/></clipPath><clipPath id="clip-path-113"><rect class="cls-1" x="95.4" y="55.86" width="12.62" height="12.6"/></clipPath><clipPath id="clip-path-115"><rect class="cls-1" x="95.48" y="82.77" width="12.61" height="12.6"/></clipPath><clipPath id="clip-path-116"><rect class="cls-1" x="95.48" y="82.77" width="12.62" height="12.6"/></clipPath><clipPath id="clip-path-117"><rect class="cls-1" x="93.82" y="73.15" width="12.62" height="12.59"/></clipPath><clipPath id="clip-path-118"><rect class="cls-1" x="93.82" y="73.14" width="12.62" height="12.6"/></clipPath><clipPath id="clip-path-119"><rect class="cls-1" x="109.85" y="77.35" width="12.62" height="12.6"/></clipPath><clipPath id="clip-path-120"><rect class="cls-1" x="109.85" y="77.35" width="12.62" height="12.6"/></clipPath><clipPath id="clip-path-121"><rect class="cls-1" x="117.7" y="108.67" width="12.62" height="12.6"/></clipPath><clipPath id="clip-path-122"><rect class="cls-1" x="117.7" y="108.67" width="12.62" height="12.6"/></clipPath><clipPath id="clip-path-123"><rect class="cls-1" x="82.56" y="76.42" width="12.62" height="12.6"/></clipPath><clipPath id="clip-path-125"><rect class="cls-1" x="85.57" y="53.74" width="12.61" height="12.6"/></clipPath><clipPath id="clip-path-126"><rect class="cls-1" x="85.57" y="53.74" width="12.62" height="12.6"/></clipPath></defs><g class="cls-2"><g id="Layer_2" data-name="Layer 2"><g id="Layer_1-2" data-name="Layer 1"><g class="cls-3"><g class="cls-4"><g class="cls-5"><path class="cls-6" d="M85.55,80.49A13.24,13.24,0,1,1,98.81,67.25,13.26,13.26,0,0,1,85.55,80.49"/></g></g></g><g class="cls-3"><g class="cls-7"><g class="cls-8"><path class="cls-9" d="M42.63,67A13.24,13.24,0,1,1,55.89,53.71,13.26,13.26,0,0,1,42.63,67"/></g></g></g><g class="cls-3"><g class="cls-10"><g class="cls-11"><path class="cls-12" d="M39.34,79.59A13.24,13.24,0,1,1,52.6,66.35,13.25,13.25,0,0,1,39.34,79.59"/></g></g></g><g class="cls-3"><g class="cls-13"><g class="cls-13"><path class="cls-14" d="M54.7,48.35A13.24,13.24,0,1,1,68,35.11,13.26,13.26,0,0,1,54.7,48.35"/></g></g></g><g class="cls-3"><g class="cls-15"><g class="cls-16"><path class="cls-17" d="M13.26,81.15A13.24,13.24,0,1,1,26.53,67.91,13.25,13.25,0,0,1,13.26,81.15"/></g></g></g><g class="cls-3"><g class="cls-18"><g class="cls-19"><path class="cls-9" d="M38.32,179.25A13.24,13.24,0,1,1,51.59,166a13.25,13.25,0,0,1-13.27,13.24"/></g></g></g><g class="cls-3"><g class="cls-20"><g class="cls-21"><path class="cls-22" d="M79.28,173.48a13.24,13.24,0,1,1,13.27-13.24,13.25,13.25,0,0,1-13.27,13.24"/></g></g></g><g class="cls-3"><g class="cls-23"><g class="cls-24"><path class="cls-25" d="M39.34,135.23A13.24,13.24,0,1,1,52.6,122a13.25,13.25,0,0,1-13.26,13.24"/></g></g></g><g class="cls-3"><g class="cls-26"><g class="cls-26"><path class="cls-27" d="M80.18,124.67a13.24,13.24,0,1,1,13.27-13.24,13.25,13.25,0,0,1-13.27,13.24"/></g></g></g><g class="cls-3"><g class="cls-28"><g class="cls-29"><path class="cls-30" d="M85.55,26.48A13.24,13.24,0,1,1,98.81,13.24,13.26,13.26,0,0,1,85.55,26.48"/></g></g></g><g class="cls-3"><g class="cls-31"><g class="cls-32"><path class="cls-33" d="M39.34,115.3A13.24,13.24,0,1,1,52.6,102.06,13.25,13.25,0,0,1,39.34,115.3"/></g></g></g><g class="cls-3"><g class="cls-34"><g class="cls-34"><path class="cls-35" d="M26.53,99.23A13.24,13.24,0,1,1,39.8,86,13.25,13.25,0,0,1,26.53,99.23"/></g></g></g><g class="cls-3"><g class="cls-36"><g class="cls-36"><path class="cls-37" d="M60.36,90.79A13.24,13.24,0,1,1,73.62,77.55,13.26,13.26,0,0,1,60.36,90.79"/></g></g></g><g class="cls-3"><g class="cls-38"><g class="cls-39"><path class="cls-40" d="M63.32,160.24A13.24,13.24,0,1,1,76.59,147a13.25,13.25,0,0,1-13.27,13.24"/></g></g></g><g class="cls-3"><g class="cls-41"><g class="cls-42"><path class="cls-43" d="M63.32,115.38a13.25,13.25,0,1,1,13.27-13.25,13.25,13.25,0,0,1-13.27,13.25"/></g></g></g><g class="cls-3"><g class="cls-44"><g class="cls-45"><path class="cls-46" d="M148.16,166.44a13.25,13.25,0,1,1,13.27-13.25,13.25,13.25,0,0,1-13.27,13.25"/></g></g></g><g class="cls-3"><g class="cls-47"><g class="cls-48"><path class="cls-6" d="M149.06,121.45A12,12,0,1,1,164.78,128a12,12,0,0,1-15.72-6.57"/></g></g></g><g class="cls-3"><g class="cls-49"><g class="cls-50"><path class="cls-9" d="M145.68,80.77a12,12,0,1,1,15.72,6.58,12,12,0,0,1-15.72-6.58"/></g></g></g><g class="cls-3"><g class="cls-51"><g class="cls-51"><path class="cls-12" d="M133.91,82.37a12,12,0,1,1,15.72,6.57,12,12,0,0,1-15.72-6.57"/></g></g></g><g class="cls-3"><g class="cls-52"><g class="cls-52"><path class="cls-14" d="M165.5,84.5a12,12,0,1,1,15.72,6.57A12,12,0,0,1,165.5,84.5"/></g></g></g><g class="cls-3"><g class="cls-53"><g class="cls-53"><path class="cls-17" d="M104.49,42.41A12,12,0,1,1,120.21,49a12,12,0,0,1-15.72-6.57"/></g></g></g><g class="cls-3"><g class="cls-54"><g class="cls-54"><path class="cls-55" d="M113,133.4A12,12,0,1,1,128.68,140,12,12,0,0,1,113,133.4"/></g></g></g><g class="cls-3"><g class="cls-56"><g class="cls-57"><path class="cls-22" d="M80.25,39.67A12,12,0,1,1,96,46.24a12,12,0,0,1-15.72-6.57"/></g></g></g><g class="cls-3"><g class="cls-58"><g class="cls-59"><path class="cls-25" d="M92.44,109.41A12,12,0,1,1,108.16,116a12,12,0,0,1-15.72-6.58"/></g></g></g><g class="cls-3"><g class="cls-60"><g class="cls-60"><path class="cls-61" d="M87.66,133.4A12,12,0,1,1,103.38,140a12,12,0,0,1-15.72-6.57"/></g></g></g><g class="cls-3"><g class="cls-62"><g class="cls-63"><path class="cls-30" d="M136.12,54.6a12,12,0,1,1,15.71,6.58,12,12,0,0,1-15.71-6.58"/></g></g></g><g class="cls-3"><g class="cls-64"><g class="cls-65"><path class="cls-33" d="M103.84,94.66a12,12,0,1,1,15.72,6.58,12,12,0,0,1-15.72-6.58"/></g></g></g><g class="cls-3"><g class="cls-66"><g class="cls-66"><path class="cls-35" d="M113,78.38A12,12,0,1,1,128.68,85,12,12,0,0,1,113,78.38"/></g></g></g><g class="cls-3"><g class="cls-67"><g class="cls-67"><path class="cls-37" d="M131.72,103.86a12,12,0,1,1,15.72,6.57,12,12,0,0,1-15.72-6.57"/></g></g></g><g class="cls-3"><g class="cls-68"><g class="cls-69"><path class="cls-40" d="M103.84,167.9a12,12,0,1,1,15.72,6.57,12,12,0,0,1-15.72-6.57"/></g></g></g><g class="cls-3"><g class="cls-70"><g class="cls-71"><path class="cls-43" d="M92.3,69.75A12,12,0,1,1,108,76.32,12,12,0,0,1,92.3,69.75"/></g></g></g><g class="cls-3"><g class="cls-72"><g class="cls-73"><path class="cls-46" d="M124.06,39.67a12,12,0,1,1,15.72,6.57,12,12,0,0,1-15.72-6.57"/></g></g></g><path class="cls-6" d="M86.05,99.39a9.58,9.58,0,1,1-9.57-9.55,9.57,9.57,0,0,1,9.57,9.55"/><path class="cls-9" d="M76.26,130.32a9.57,9.57,0,1,1-9.57-9.56,9.56,9.56,0,0,1,9.57,9.56"/><path class="cls-12" d="M85.4,132.68a9.58,9.58,0,1,1-9.57-9.55,9.57,9.57,0,0,1,9.57,9.55"/><path class="cls-14" d="M62.82,121.62a9.58,9.58,0,1,1-9.58-9.56,9.56,9.56,0,0,1,9.58,9.56"/><path class="cls-17" d="M86.53,151.47A9.58,9.58,0,1,1,77,141.91a9.57,9.57,0,0,1,9.58,9.56"/><path class="cls-55" d="M157.76,132.68a9.58,9.58,0,1,1-9.57-9.55,9.57,9.57,0,0,1,9.57,9.55"/><path class="cls-22" d="M156.18,105.75a9.58,9.58,0,1,1-9.58-9.55,9.57,9.57,0,0,1,9.58,9.55"/><path class="cls-25" d="M125.63,132.68a9.58,9.58,0,1,1-9.58-9.55,9.57,9.57,0,0,1,9.58,9.55"/><path class="cls-61" d="M118,103.26a9.58,9.58,0,1,1-9.57-9.55,9.55,9.55,0,0,1,9.57,9.55"/><path class="cls-30" d="M47,99.39a9.58,9.58,0,1,1-9.58-9.55A9.57,9.57,0,0,1,47,99.39"/><path class="cls-33" d="M111.22,132.68a9.58,9.58,0,1,1-9.58-9.55,9.57,9.57,0,0,1,9.58,9.55"/><path class="cls-35" d="M99.6,141.91A9.58,9.58,0,1,1,90,132.36a9.56,9.56,0,0,1,9.57,9.55"/><path class="cls-37" d="M93.5,117.54A9.58,9.58,0,1,1,83.92,108a9.57,9.57,0,0,1,9.58,9.55"/><path class="cls-40" d="M143.71,115.41a9.58,9.58,0,1,1-9.58-9.56,9.57,9.57,0,0,1,9.58,9.56"/><path class="cls-43" d="M111.27,115.41a9.58,9.58,0,1,1-9.57-9.56,9.56,9.56,0,0,1,9.57,9.56"/><path class="cls-46" d="M148.19,57.88a9.58,9.58,0,1,1-9.58-9.55,9.57,9.57,0,0,1,9.58,9.55"/><path class="cls-6" d="M115.66,53.64a8.68,8.68,0,1,1,4.75-11.32,8.7,8.7,0,0,1-4.75,11.32"/><path class="cls-9" d="M86.26,56.08A8.69,8.69,0,1,1,91,44.75a8.72,8.72,0,0,1-4.75,11.33"/><path class="cls-12" d="M87.41,64.56a8.68,8.68,0,1,1,4.75-11.33,8.71,8.71,0,0,1-4.75,11.33"/><path class="cls-14" d="M89,41.8A8.68,8.68,0,1,1,93.7,30.48,8.69,8.69,0,0,1,89,41.8"/><path class="cls-17" d="M58.52,85.75a8.68,8.68,0,1,1,4.75-11.32,8.7,8.7,0,0,1-4.75,11.32"/><path class="cls-55" d="M124.3,79.65a8.68,8.68,0,1,1,4.75-11.33,8.71,8.71,0,0,1-4.75,11.33"/><path class="cls-22" d="M56.54,103.21a8.68,8.68,0,1,1,4.75-11.32,8.69,8.69,0,0,1-4.75,11.32"/><path class="cls-25" d="M107,94.43a8.68,8.68,0,1,1,4.75-11.32A8.69,8.69,0,0,1,107,94.43"/><path class="cls-61" d="M124.3,97.87a8.68,8.68,0,1,1,4.75-11.32,8.69,8.69,0,0,1-4.75,11.32"/><path class="cls-30" d="M67.34,63a8.69,8.69,0,1,1,4.75-11.33A8.72,8.72,0,0,1,67.34,63"/><path class="cls-33" d="M97.3,96.28A8.68,8.68,0,1,1,102.05,85,8.71,8.71,0,0,1,97.3,96.28"/><path class="cls-35" d="M84.53,79.65a8.68,8.68,0,1,1,4.75-11.33,8.72,8.72,0,0,1-4.75,11.33"/><path class="cls-37" d="M102.94,66.14a8.68,8.68,0,1,1,4.76-11.33,8.71,8.71,0,0,1-4.76,11.33"/><path class="cls-40" d="M152.84,93.4a8.68,8.68,0,1,1,4.75-11.32,8.69,8.69,0,0,1-4.75,11.32"/><path class="cls-43" d="M78.28,94.53A8.68,8.68,0,1,1,83,83.21a8.69,8.69,0,0,1-4.76,11.32"/><path class="cls-46" d="M56.54,71.65a8.68,8.68,0,1,1,4.75-11.32,8.7,8.7,0,0,1-4.75,11.32"/><g class="cls-3"><g class="cls-74"><g class="cls-75"><path class="cls-6" d="M86.63,94.83a6.94,6.94,0,1,1,1-9.75,7,7,0,0,1-1,9.75"/></g></g></g><g class="cls-3"><g class="cls-76"><g class="cls-76"><path class="cls-9" d="M64.69,103.42a6.94,6.94,0,1,1,1-9.75,6.94,6.94,0,0,1-1,9.75"/></g></g></g><g class="cls-3"><g class="cls-77"><g class="cls-78"><path class="cls-12" d="M67.52,109.65a6.94,6.94,0,1,1,1-9.75,7,7,0,0,1-1,9.75"/></g></g></g><g class="cls-3"><g class="cls-79"><g class="cls-80"><path class="cls-14" d="M63.47,91.89a6.94,6.94,0,1,1,1-9.75,7,7,0,0,1-1,9.75"/></g></g></g><g class="cls-3"><g class="cls-81"><g class="cls-82"><path class="cls-17" d="M57.43,118.85a6.94,6.94,0,1,1,1-9.75,7,7,0,0,1-1,9.75"/></g></g></g><g class="cls-3"><g class="cls-83"><g class="cls-83"><path class="cls-55" d="M100.53,150.38a6.94,6.94,0,1,1,1-9.75,6.94,6.94,0,0,1-1,9.75"/></g></g></g><g class="cls-3"><g class="cls-84"><g class="cls-85"><path class="cls-22" d="M114.75,134.73a6.93,6.93,0,1,1,1-9.75,7,7,0,0,1-1,9.75"/></g></g></g><g class="cls-3"><g class="cls-86"><g class="cls-86"><path class="cls-25" d="M85.88,132.29a6.94,6.94,0,1,1,1-9.75,7,7,0,0,1-1,9.75"/></g></g></g><g class="cls-3"><g class="cls-87"><g class="cls-88"><path class="cls-61" d="M97.22,107.38a6.93,6.93,0,1,1,1-9.75,7,7,0,0,1-1,9.75"/></g></g></g><g class="cls-3"><g class="cls-89"><g class="cls-90"><path class="cls-30" d="M68.82,72.85a6.94,6.94,0,1,1,1-9.75,7,7,0,0,1-1,9.75"/></g></g></g><g class="cls-3"><g class="cls-91"><g class="cls-92"><path class="cls-33" d="M79.3,124.18a6.94,6.94,0,1,1,1-9.75,6.94,6.94,0,0,1-1,9.75"/></g></g></g><g class="cls-3"><g class="cls-93"><g class="cls-94"><path class="cls-35" d="M68.79,121.85a6.94,6.94,0,1,1,1-9.75,7,7,0,0,1-1,9.75"/></g></g></g><g class="cls-3"><g class="cls-95"><g class="cls-95"><path class="cls-37" d="M79.77,107.3a6.94,6.94,0,1,1,1-9.75,7,7,0,0,1-1,9.75"/></g></g></g><g class="cls-3"><g class="cls-96"><g class="cls-97"><path class="cls-40" d="M103.88,134.59a6.94,6.94,0,1,1,1-9.75,6.94,6.94,0,0,1-1,9.75"/></g></g></g><g class="cls-3"><g class="cls-98"><g class="cls-99"><path class="cls-43" d="M89.09,116.33a6.94,6.94,0,1,1,1-9.75,7,7,0,0,1-1,9.75"/></g></g></g><g class="cls-3"><g class="cls-100"><g class="cls-101"><path class="cls-46" d="M140.46,109.23a6.94,6.94,0,1,1,1-9.75,7,7,0,0,1-1,9.75"/></g></g></g><g class="cls-3"><g class="cls-102"><g class="cls-103"><path class="cls-6" d="M126,90.62a6.29,6.29,0,1,1,8.56-2.49A6.28,6.28,0,0,1,126,90.62"/></g></g></g><g class="cls-3"><g class="cls-104"><g class="cls-105"><path class="cls-9" d="M115.18,65.41a6.3,6.3,0,1,1,8.56-2.5,6.29,6.29,0,0,1-8.56,2.5"/></g></g></g><g class="cls-3"><g class="cls-106"><g class="cls-106"><path class="cls-12" d="M106.93,79.7a6.3,6.3,0,1,1,8.57-2.49,6.29,6.29,0,0,1-8.57,2.49"/></g></g></g><g class="cls-3"><g class="cls-107"><g class="cls-108"><path class="cls-14" d="M120.49,70.19a6.3,6.3,0,1,1,8.57-2.5,6.29,6.29,0,0,1-8.57,2.5"/></g></g></g><g class="cls-3"><g class="cls-109"><g class="cls-109"><path class="cls-17" d="M81.78,73.1a6.29,6.29,0,1,1,8.56-2.49,6.28,6.28,0,0,1-8.56,2.49"/></g></g></g><g class="cls-3"><g class="cls-110"><g class="cls-111"><path class="cls-55" d="M119.4,107.05a6.3,6.3,0,1,1,8.56-2.5,6.28,6.28,0,0,1-8.56,2.5"/></g></g></g><g class="cls-3"><g class="cls-112"><g class="cls-113"><path class="cls-22" d="M71,80a6.3,6.3,0,1,1,8.56-2.5A6.29,6.29,0,0,1,71,80"/></g></g></g><g class="cls-3"><g class="cls-114"><g class="cls-115"><path class="cls-25" d="M99,104.34a6.3,6.3,0,1,1,8.57-2.5,6.29,6.29,0,0,1-8.57,2.5"/></g></g></g><path class="cls-12" d="M110.33,117.46a6.3,6.3,0,1,1,8.56-2.49,6.29,6.29,0,0,1-8.56,2.49"/><g class="cls-3"><g class="cls-116"><g class="cls-116"><path class="cls-30" d="M98.67,67.67a6.29,6.29,0,1,1,8.57-2.49,6.28,6.28,0,0,1-8.57,2.49"/></g></g></g><g class="cls-3"><g class="cls-117"><g class="cls-118"><path class="cls-33" d="M98.75,94.58a6.29,6.29,0,1,1,8.56-2.49,6.28,6.28,0,0,1-8.56,2.49"/></g></g></g><g class="cls-3"><g class="cls-119"><g class="cls-120"><path class="cls-35" d="M97.09,85a6.3,6.3,0,1,1,8.57-2.49A6.29,6.29,0,0,1,97.09,85"/></g></g></g><g class="cls-3"><g class="cls-121"><g class="cls-122"><path class="cls-37" d="M113.13,89.17a6.3,6.3,0,1,1,8.56-2.5,6.29,6.29,0,0,1-8.56,2.5"/></g></g></g><g class="cls-3"><g class="cls-123"><g class="cls-124"><path class="cls-40" d="M121,120.49a6.3,6.3,0,1,1,8.56-2.5,6.28,6.28,0,0,1-8.56,2.5"/></g></g></g><g class="cls-3"><g class="cls-125"><g class="cls-125"><path class="cls-43" d="M85.83,88.24a6.3,6.3,0,1,1,8.57-2.5,6.29,6.29,0,0,1-8.57,2.5"/></g></g></g><g class="cls-3"><g class="cls-126"><g class="cls-127"><path class="cls-46" d="M88.84,65.56a6.3,6.3,0,1,1,8.57-2.5,6.29,6.29,0,0,1-8.57,2.5"/></g></g></g><path class="cls-128" d="M215.32,155V155a11.18,11.18,0,0,1,11.2-11.45,11.37,11.37,0,0,1,8.64,3.51l-1.71,1.84a9.59,9.59,0,0,0-7-3c-4.91,0-8.57,4-8.57,9.08V155c0,5.13,3.66,9.14,8.57,9.14,3,0,5-1.17,7.15-3.19l1.64,1.61a11.47,11.47,0,0,1-8.85,3.89A11.05,11.05,0,0,1,215.32,155"/><path class="cls-128" d="M238.79,155V155a11.22,11.22,0,0,1,11.33-11.45,11.11,11.11,0,0,1,11.26,11.39s0,0,0,.06a11.3,11.3,0,1,1-22.59.06m20,0V155c0-5-3.67-9.14-8.73-9.14s-8.67,4-8.67,9.08V155c0,5,3.67,9.14,8.73,9.14s8.67-4.05,8.67-9.08"/><polygon class="cls-128" points="267.44 143.9 269.78 143.9 283.73 161.65 283.73 143.9 286.16 143.9 286.16 166.04 284.17 166.04 269.87 147.88 269.87 166.04 267.44 166.04 267.44 143.9"/><polygon class="cls-128" points="293.38 143.9 295.72 143.9 309.67 161.65 309.67 143.9 312.1 143.9 312.1 166.04 310.11 166.04 295.81 147.88 295.81 166.04 293.38 166.04 293.38 143.9"/><polygon class="cls-128" points="319.31 143.9 335.32 143.9 335.32 146.18 321.81 146.18 321.81 153.74 333.89 153.74 333.89 156.01 321.81 156.01 321.81 163.76 335.47 163.76 335.47 166.04 319.31 166.04 319.31 143.9"/><path class="cls-128" d="M339.48,155V155a11.17,11.17,0,0,1,11.2-11.45,11.35,11.35,0,0,1,8.63,3.51l-1.71,1.84a9.59,9.59,0,0,0-7-3c-4.9,0-8.57,4-8.57,9.08V155c0,5.13,3.67,9.14,8.57,9.14,3,0,5-1.17,7.15-3.19l1.65,1.61a11.49,11.49,0,0,1-8.86,3.89A11,11,0,0,1,339.48,155"/><polygon class="cls-128" points="370.72 146.21 363.29 146.21 363.29 143.9 380.68 143.9 380.68 146.21 373.25 146.21 373.25 166.05 370.72 166.05 370.72 146.21"/><rect class="cls-128" x="385.9" y="143.9" width="2.5" height="22.14"/><polygon class="cls-128" points="395.67 143.9 398.01 143.9 411.96 161.65 411.96 143.9 414.4 143.9 414.4 166.04 412.4 166.04 398.11 147.88 398.11 166.04 395.67 166.04 395.67 143.9"/><path class="cls-128" d="M420.49,155V155c0-6.07,4.46-11.45,11.11-11.45a11.69,11.69,0,0,1,8.25,2.94l-1.61,1.9a9.36,9.36,0,0,0-6.74-2.53c-4.9,0-8.41,4.14-8.41,9.08V155c0,5.28,3.38,9.21,8.76,9.21a10.4,10.4,0,0,0,6.39-2.22v-5.5H431.5v-2.25h9.14V163a13.21,13.21,0,0,1-8.89,3.38c-6.95,0-11.26-5.06-11.26-11.39"/><polygon class="cls-128" points="462.25 146.21 454.81 146.21 454.81 143.9 472.21 143.9 472.21 146.21 464.78 146.21 464.78 166.05 462.25 166.05 462.25 146.21"/><polygon class="cls-128" points="477.31 143.9 479.81 143.9 479.81 153.74 492.59 153.74 492.59 143.9 495.09 143.9 495.09 166.04 492.59 166.04 492.59 156.08 479.81 156.08 479.81 166.04 477.31 166.04 477.31 143.9"/><polygon class="cls-128" points="502.3 143.9 518.31 143.9 518.31 146.18 504.8 146.18 504.8 153.74 516.88 153.74 516.88 156.01 504.8 156.01 504.8 163.76 518.47 163.76 518.47 166.04 502.3 166.04 502.3 143.9"/><path class="cls-128" d="M533.62,143.9h7.69c7,0,11.76,4.78,11.76,11V155c0,6.24-4.8,11.07-11.76,11.07h-7.69Zm7.69,19.83c5.6,0,9.17-3.76,9.17-8.7V155c0-4.9-3.57-8.76-9.17-8.76h-5.19v17.52Z"/><path class="cls-128" d="M558,155V155a11.29,11.29,0,1,1,22.58-.06s0,0,0,.06A11.29,11.29,0,1,1,558,155m20,0V155c0-5-3.67-9.14-8.73-9.14s-8.67,4-8.67,9.08V155c0,5,3.67,9.14,8.73,9.14S578,160.06,578,155"/><polygon class="cls-128" points="590.97 146.21 583.53 146.21 583.53 143.9 600.93 143.9 600.93 146.21 593.5 146.21 593.5 166.05 590.97 166.05 590.97 146.21"/><path class="cls-128" d="M604.42,162.82,606,161a10.43,10.43,0,0,0,7.59,3.14c3,0,4.94-1.59,4.94-3.77v-.06c0-2.06-1.11-3.2-5.76-4.21-5.09-1.11-7.43-2.76-7.43-6.39v-.06c0-3.45,3.06-6,7.27-6a11.56,11.56,0,0,1,7.78,2.72l-1.45,1.93a9.76,9.76,0,0,0-6.39-2.4c-2.91,0-4.72,1.55-4.72,3.57v.07c0,2.09,1.11,3.29,6,4.3S621,156.65,621,160v.07c0,3.79-3.16,6.26-7.56,6.26a12.78,12.78,0,0,1-9.05-3.54"/><path class="cls-128" d="M262,58.54A23.61,23.61,0,0,0,254.27,53a29.1,29.1,0,0,0-12-2.45,32,32,0,0,0-15.7,3.86A28.11,28.11,0,0,0,215.7,65.22a32.11,32.11,0,0,0-3.93,16,32.44,32.44,0,0,0,3.93,16.09,28,28,0,0,0,10.89,10.9,31.88,31.88,0,0,0,15.7,3.87,28.67,28.67,0,0,0,12.33-2.63,23.86,23.86,0,0,0,7.85-5.89v7.86h11.79V51.06H262Zm-18.85,42.67a19.1,19.1,0,0,1-9.75-2.51,18,18,0,0,1-6.81-7,23,23,0,0,1,0-20.87,17.81,17.81,0,0,1,6.8-7,20.6,20.6,0,0,1,19.47,0,17.22,17.22,0,0,1,6.79,7,21.61,21.61,0,0,1,2.46,10.44,21.56,21.56,0,0,1-2.46,10.44,17.56,17.56,0,0,1-6.79,7,19.27,19.27,0,0,1-9.71,2.51"/><path class="cls-128" d="M306.59,53.25A19.26,19.26,0,0,0,299.53,59v-8h-11.8v60.39H300V81.36c0-6.12,1.59-10.88,4.72-14.15s7.49-4.91,13-4.91a20.42,20.42,0,0,1,2.35.1l.89.11v-12h-.79a30.75,30.75,0,0,0-13.56,2.75"/><rect class="cls-128" x="327.83" y="51.06" width="12.24" height="60.39"/><path class="cls-128" d="M334,25.87a7.77,7.77,0,0,0-5.72,2.29,7.53,7.53,0,0,0-2.29,5.49,7.4,7.4,0,0,0,2.29,5.46A7.92,7.92,0,0,0,334,41.32,7.78,7.78,0,0,0,339.67,39,7.68,7.68,0,0,0,342,33.43a7.16,7.16,0,0,0-2.3-5.4,8,8,0,0,0-5.7-2.16"/><path class="cls-128" d="M399.23,58.54A23.61,23.61,0,0,0,391.47,53a29.1,29.1,0,0,0-12-2.45,32,32,0,0,0-15.7,3.86A28,28,0,0,0,352.9,65.22a32.11,32.11,0,0,0-3.93,16,32.44,32.44,0,0,0,3.93,16.09,27.9,27.9,0,0,0,10.89,10.9,31.85,31.85,0,0,0,15.7,3.87,28.66,28.66,0,0,0,12.32-2.63,23.8,23.8,0,0,0,7.86-5.89v7.86h11.79V51.06H399.23Zm-18.85,42.67a19.1,19.1,0,0,1-9.75-2.51,18,18,0,0,1-6.81-7,23,23,0,0,1,0-20.87,17.81,17.81,0,0,1,6.8-7,20.6,20.6,0,0,1,19.47,0,17.22,17.22,0,0,1,6.79,7,23.38,23.38,0,0,1,0,20.88,17.52,17.52,0,0,1-6.8,7,19.23,19.23,0,0,1-9.7,2.51"/><path class="cls-128" d="M470.91,58.54A23.61,23.61,0,0,0,463.15,53a29.09,29.09,0,0,0-12-2.45,31.93,31.93,0,0,0-15.7,3.86,28.07,28.07,0,0,0-10.9,10.85,32.11,32.11,0,0,0-3.93,16,32.44,32.44,0,0,0,3.93,16.09,27.93,27.93,0,0,0,10.9,10.9,31.82,31.82,0,0,0,15.7,3.87,28.69,28.69,0,0,0,12.32-2.63,23.86,23.86,0,0,0,7.85-5.89v7.86h11.8V27.54H470.91Zm-18.85,42.67a19.1,19.1,0,0,1-9.75-2.51,18,18,0,0,1-6.81-7,23,23,0,0,1,0-20.87,17.81,17.81,0,0,1,6.8-7,20.62,20.62,0,0,1,19.48,0,17.19,17.19,0,0,1,6.78,7A21.61,21.61,0,0,1,471,81.25a21.56,21.56,0,0,1-2.46,10.44,17.49,17.49,0,0,1-6.79,7,19.27,19.27,0,0,1-9.71,2.51"/><path class="cls-128" d="M528.81,50.5A31.48,31.48,0,0,0,516,53a22.17,22.17,0,0,0-7.59,5.45v-7.4H496.62v60.39h12.23V80.36c0-6,1.6-10.72,4.77-13.92s7.56-4.81,13.08-4.81c4.85,0,8.62,1.37,11.18,4.08s3.89,6.87,3.89,12.33v33.41H554V76.81c0-8.54-2.3-15.13-6.84-19.59s-10.71-6.72-18.36-6.72"/><path class="cls-128" d="M578.14,108.19a38.23,38.23,0,0,0,30.46,1.42,25.68,25.68,0,0,0,10.13-7.32l.42-.51-6.77-8.09-.61.68c-4.12,4.54-9.63,6.84-16.4,6.84A22.56,22.56,0,0,1,583.1,98a17.21,17.21,0,0,1-6.83-8.16l46.42-9v-.66a30.74,30.74,0,0,0-4.11-15.48A28.18,28.18,0,0,0,607.85,54.2a30.6,30.6,0,0,0-14.91-3.69,30.94,30.94,0,0,0-15.54,3.93,28.26,28.26,0,0,0-10.84,11,32,32,0,0,0-3.93,15.8,31.53,31.53,0,0,0,4,15.93,28.16,28.16,0,0,0,11.46,11m5.26-44.67a18.73,18.73,0,0,1,9.54-2.44,17.84,17.84,0,0,1,11.48,3.82,17.16,17.16,0,0,1,6,9.18l-35.85,6.77V80.7a21.85,21.85,0,0,1,2.35-10.34,17,17,0,0,1,6.52-6.84"/><rect class="cls-1" width="622.7" height="179.25"/></g></g></g></svg>