<svg xmlns="http://www.w3.org/2000/svg" viewBox="0 0 78 81.62"><defs><style>.cls-1{fill:none;stroke:#000;stroke-width:1.5px;}</style></defs><g id="Layer_2" data-name="Layer 2"><g id="Layer_1-2" data-name="Layer 1"><path class="cls-1" d="M19.55,14c.06-6.68,5.69-10.5,11-11.19A38.78,38.78,0,0,0,39.08.93l0,0A2.25,2.25,0,0,1,39.28,3a12.39,12.39,0,0,0,8.51-.67c0,1.93.09,5.84-.69,7.61A6.91,6.91,0,0,1,43,13.87a8.74,8.74,0,0,1-3.71.14c-2.48-.33-4.9-1.07-7.36-1.54a15.39,15.39,0,0,0-7.45.06m17,33.52L32.8,53.83l-8.69-7.78m23.67-22.9a23.74,23.74,0,0,0-1-7.16M19.55,14c-2.24,3.29-1.83,9.17-1.83,9.17m0,0c-1.65.47-2.84,2.44-2.84,4.87,0,2.66,1.45,4.78,3.35,5a18.31,18.31,0,0,0,6.25,9.83L24,47a2.33,2.33,0,0,1-1.65,2L11.72,52.08a10.16,10.16,0,0,0-4.16,2.18,12.28,12.28,0,0,0-4.22,7.05L.85,80.87h53.7m2.94-27a9.64,9.64,0,0,0-3.58-1.75L43.25,49a2.11,2.11,0,0,1-.64-.31,2.28,2.28,0,0,1-1-1.65l-.49-4.22A18.2,18.2,0,0,0,47.35,33c1.9-.17,3.37-2.28,3.37-5,0-2.47-1.24-4.47-2.94-4.89"/><path class="cls-1" d="M59.72,69.24,63.91,73l6.79-8.3m-18,3.92A12.27,12.27,0,1,0,65,56.32,12.27,12.27,0,0,0,52.71,68.59Z"/></g></g></svg>