<svg xmlns="http://www.w3.org/2000/svg" viewBox="0 0 82.14 81.21"><defs><style>.cls-1{fill:none;stroke:#000;stroke-width:1.5px;}</style></defs><g id="Layer_2" data-name="Layer 2"><g id="Layer_1-2" data-name="Layer 1"><path class="cls-1" d="M30.11,50.57v3m0-26.83v3M24.87,45.33a5.24,5.24,0,0,0,10.48,0c0-2.89-2.15-4.23-5.24-5.24-2.75-.9-5.24-2.34-5.24-5.24a5.24,5.24,0,0,1,10.48,0m5.34-22.12,7.83-7.59L45.71,2.33a5.39,5.39,0,0,0-7.63,0L35.82,4.6l-1-1a6.66,6.66,0,0,0-9.42,0l-1,1L22.13,2.33a5.38,5.38,0,0,0-7.62,0L11.7,5.14l7.83,7.59M59.2,50.47a29,29,0,0,0-5.89-17.32L40.69,12.73H19.53L6.64,33.15A29.05,29.05,0,0,0,.75,50.47v.18A17.1,17.1,0,0,0,17.91,67.49h24a17.29,17.29,0,0,0,6.82-1.39"/><path class="cls-1" d="M81.39,66.21A14.25,14.25,0,1,1,67.14,52,14.25,14.25,0,0,1,81.39,66.21Zm-20.21-.54,5.11,4.56,7.37-9"/></g></g></svg>