<svg xmlns="http://www.w3.org/2000/svg" viewBox="0 0 74 67.53"><defs><style>.cls-1{fill:none;stroke:#000;stroke-width:1.5px;}</style></defs><g id="Layer_2" data-name="Layer 2"><g id="Layer_1-2" data-name="Layer 1"><path class="cls-1" d="M59.79,6.77,72.6,1.4,67.23,14.21M12.65,53.92l7.16,7.16M41.62,24.94,59.79,6.77l7.44,7.44L49.14,32.29M36.87,44.56,16.2,65.24A5.26,5.26,0,0,1,8.76,57.8L29.47,37.09"/><path class="cls-1" d="M17.76,25.05l-7.37-7.36a.8.8,0,0,1,0-1.13L21.19,5.77a.79.79,0,0,1,1.12,0l7.37,7.37a.79.79,0,0,1,0,1.12L18.88,25.05A.79.79,0,0,1,17.76,25.05Zm4.38-2.95L24,24.81a25.72,25.72,0,0,0,3,3.59L64.45,65.83a1.46,1.46,0,0,0,2,0l4-4a1.43,1.43,0,0,0,0-2L33,22.4a26.52,26.52,0,0,0-3.6-3l-2.71-1.87"/><rect class="cls-1" x="3.6" y="22.81" width="5.54" height="11.23" rx="0.74" transform="translate(-18.23 12.83) rotate(-45)"/><path class="cls-1" d="M23.74,6l2-1.86s3.84-3.88,9-2.19a45.41,45.41,0,0,1,6.84,2.61S42.5,4.72,40,6a4,4,0,0,1-1.17,0c-.84,0-5.16-1-8.58,2.16l-2,1.89"/><path class="cls-1" d="M17.31,25a4.36,4.36,0,0,0-5,5M9.84,17.48a4.21,4.21,0,0,1-1.21,3.81,4.22,4.22,0,0,1-3.77,1.22"/></g></g></svg>